<svg width="767" height="540" viewBox="0 0 767 540" fill="none" xmlns="http://www.w3.org/2000/svg">
<path d="M692.882 400.447C587.557 301.128 481.508 201.81 376.182 102.492C275.2 201.81 174.58 301.128 73.5975 400.447C34.1456 439.232 -26.6608 378.336 12.791 339.551C123.546 230.446 234.3 121.34 345.055 12.2351C362.066 -4.43882 388.85 -3.71387 405.861 12.2351C521.683 121.34 637.867 230.446 753.689 339.551C793.865 377.611 733.058 438.144 692.882 400.447Z" fill="#D1D1D1"/>
<path d="M493.814 297.504V350.425C493.814 373.261 475.355 391.385 452.914 391.385H400.07C377.268 391.385 359.171 372.899 359.171 350.425V297.504C359.171 274.668 377.63 256.544 400.07 256.544H452.914C475.717 256.544 493.814 275.03 493.814 297.504Z" fill="#D1D1D1"/>
<path d="M329.491 446.119V499.04C329.491 521.876 311.032 540 288.592 540H235.748C212.946 540 194.849 521.514 194.849 499.04V446.119C194.849 423.283 213.308 405.159 235.748 405.159H288.592C311.394 405.159 329.491 423.645 329.491 446.119Z" fill="#D1D1D1"/>
</svg>
