<svg width="565" height="372" viewBox="0 0 565 372" fill="none" xmlns="http://www.w3.org/2000/svg">
<g clip-path="url(#clip0_3477_1468)">
<path d="M539.45 236.708C458.478 160.655 377.503 84.603 296.531 8.54725C284.669 -2.59367 266.021 -3.10554 254.176 8.54725C176.87 84.603 99.5603 160.655 22.2506 236.708C-5.27358 263.782 37.088 306.13 64.6054 279.062C141.915 203.01 219.221 126.958 296.531 50.902H254.176C335.148 126.954 416.123 203.007 497.095 279.062C525.176 305.439 567.616 263.167 539.45 236.708Z" fill="white"/>
<path d="M341.084 184.115H281.058C280.857 184.115 280.694 184.278 280.694 184.48V244.506C280.694 244.707 280.857 244.87 281.058 244.87H341.084C341.285 244.87 341.448 244.707 341.448 244.506V184.48C341.448 184.278 341.285 184.115 341.084 184.115Z" fill="white"/>
<path d="M329.569 261.652H292.577C276.774 261.652 263.916 248.793 263.916 232.99V195.998C263.916 180.196 276.774 167.337 292.577 167.337H329.569C345.372 167.337 358.23 180.196 358.23 195.998V232.99C358.23 248.793 345.372 261.652 329.569 261.652ZM297.476 228.088H324.667V200.897H297.476V228.088Z" fill="white"/>
<path d="M237.446 287.754H177.42C177.219 287.754 177.056 287.917 177.056 288.118V348.144C177.056 348.345 177.219 348.508 177.42 348.508H237.446C237.647 348.508 237.81 348.345 237.81 348.144V288.118C237.81 287.917 237.647 287.754 237.446 287.754Z" fill="white"/>
<path d="M225.931 365.29H188.939C173.136 365.29 160.277 352.432 160.277 336.629V299.637C160.277 283.834 173.136 270.975 188.939 270.975H225.931C241.733 270.975 254.592 283.834 254.592 299.637V336.629C254.592 352.432 241.733 365.29 225.931 365.29ZM193.841 331.727H221.032V304.536H193.841V331.727Z" fill="white"/>
</g>
<defs>
<clipPath id="clip0_3477_1468">
<rect width="564.779" height="371.02" fill="white"/>
</clipPath>
</defs>
</svg>
