<svg width="1920" height="309" viewBox="0 0 1920 309" fill="none" xmlns="http://www.w3.org/2000/svg">
<path d="M84.53 101.26H56.12V228.8H24.1V101.26H6V75.3599H24.1V64.4999C24.1 46.8599 28.79 34.0099 38.16 25.9299C47.53 17.8499 62.25 13.8199 82.3 13.8199V40.2799C72.64 40.2799 65.87 42.0899 61.97 45.7099C58.07 49.3299 56.12 55.5999 56.12 64.5099V75.3699H84.53V101.27V101.26Z" fill="#262626"/>
<path d="M114.33 49.18C110.43 45.28 108.48 40.46 108.48 34.7C108.48 28.94 110.43 24.12 114.33 20.22C118.23 16.32 123.05 14.37 128.81 14.37C134.57 14.37 139.11 16.32 143.01 20.22C146.91 24.12 148.86 28.95 148.86 34.7C148.86 40.45 146.91 45.28 143.01 49.18C139.11 53.08 134.38 55.03 128.81 55.03C123.24 55.03 118.23 53.08 114.33 49.18ZM144.4 75.36V228.8H112.65V75.36H144.4Z" fill="#262626"/>
<path d="M296.03 80.37C305.59 85.38 313.06 92.81 318.45 102.65C323.83 112.49 326.53 124.37 326.53 138.3V228.81H295.06V143.04C295.06 129.3 291.62 118.77 284.76 111.43C277.89 104.1 268.51 100.43 256.63 100.43C244.75 100.43 235.33 104.1 228.36 111.43C221.4 118.77 217.92 129.3 217.92 143.04V228.81H186.17V75.36H217.92V92.9C223.12 86.59 229.76 81.67 237.83 78.14C245.91 74.62 254.49 72.85 263.59 72.85C275.66 72.85 286.47 75.36 296.03 80.37Z" fill="#262626"/>
<path d="M365.93 110.45C372.33 98.57 381.06 89.33 392.11 82.74C403.15 76.15 415.45 72.85 429.01 72.85C439.04 72.85 448.92 75.03 458.67 79.39C468.42 83.75 476.17 89.55 481.92 96.8V22.73H513.95V228.8H481.92V205.69C476.72 213.12 469.53 219.24 460.34 224.07C451.15 228.9 440.61 231.31 428.73 231.31C415.36 231.31 403.15 227.92 392.11 221.15C381.06 214.38 372.34 204.91 365.93 192.75C359.52 180.59 356.32 166.81 356.32 151.4C356.32 135.99 359.52 122.35 365.93 110.46V110.45ZM475.37 124.37C471.01 116.57 465.3 110.63 458.24 106.55C451.18 102.47 443.57 100.42 435.4 100.42C427.23 100.42 419.62 102.42 412.56 106.41C405.5 110.4 399.79 116.25 395.43 123.95C391.07 131.66 388.89 140.8 388.89 151.38C388.89 161.96 391.07 171.25 395.43 179.23C399.79 187.21 405.55 193.29 412.7 197.47C419.84 201.65 427.41 203.74 435.4 203.74C443.39 203.74 451.18 201.7 458.24 197.61C465.29 193.53 471 187.54 475.37 179.65C479.73 171.76 481.91 162.52 481.91 151.94C481.91 141.36 479.73 132.17 475.37 124.37Z" fill="#262626"/>
<path d="M846.3 80.37C855.86 85.38 863.38 92.81 868.86 102.65C874.33 112.49 877.08 124.37 877.08 138.3V228.81H845.61V143.04C845.61 129.3 842.17 118.77 835.31 111.43C828.44 104.1 819.06 100.43 807.18 100.43C795.3 100.43 785.88 104.1 778.91 111.43C771.95 118.77 768.47 129.3 768.47 143.04V228.81H737V143.04C737 129.3 733.56 118.77 726.7 111.43C719.83 104.1 710.45 100.43 698.57 100.43C686.69 100.43 677.27 104.1 670.3 111.43C663.34 118.77 659.86 129.3 659.86 143.04V228.81H628.11V75.36H659.86V92.9C665.06 86.59 671.65 81.67 679.63 78.14C687.61 74.62 696.15 72.85 705.25 72.85C717.5 72.85 728.46 75.45 738.11 80.65C747.76 85.85 755.19 93.37 760.39 103.21C765.03 93.93 772.27 86.55 782.11 81.07C791.95 75.6 802.53 72.85 813.86 72.85C825.93 72.85 836.74 75.36 846.3 80.37Z" fill="#262626"/>
<path d="M1055.58 75.36L961.45 300.93H928.59L959.78 226.3L899.35 75.36H934.72L977.88 192.32L1022.72 75.36H1055.58Z" fill="#262626"/>
<path d="M1205.67 80.09C1214.95 75.26 1225.44 72.85 1237.14 72.85C1250.51 72.85 1262.71 76.15 1273.76 82.74C1284.8 89.33 1293.48 98.57 1299.8 110.45C1306.11 122.33 1309.27 135.98 1309.27 151.39C1309.27 166.8 1306.11 180.59 1299.8 192.74C1293.49 204.9 1284.81 214.37 1273.76 221.14C1262.71 227.92 1250.51 231.3 1237.14 231.3C1225.44 231.3 1215.04 228.93 1205.95 224.2C1196.85 219.47 1189.42 213.57 1183.67 206.52V301.76H1151.92V75.36H1183.67V97.92C1189.05 90.87 1196.38 84.93 1205.67 80.1V80.09ZM1270.42 123.95C1266.06 116.25 1260.3 110.4 1253.15 106.41C1246 102.42 1238.34 100.42 1230.18 100.42C1222.02 100.42 1214.63 102.47 1207.48 106.55C1200.33 110.64 1194.57 116.58 1190.21 124.37C1185.85 132.17 1183.67 141.36 1183.67 151.94C1183.67 162.52 1185.85 171.76 1190.21 179.65C1194.57 187.54 1200.33 193.53 1207.48 197.61C1214.62 201.7 1222.19 203.74 1230.18 203.74C1238.17 203.74 1246.01 201.65 1253.15 197.47C1260.29 193.29 1266.05 187.21 1270.42 179.23C1274.78 171.25 1276.96 161.96 1276.96 151.38C1276.96 140.8 1274.78 131.66 1270.42 123.95Z" fill="#262626"/>
<path d="M1372.48 22.73V228.8H1340.73V22.73H1372.48Z" fill="#262626"/>
<path d="M1413.27 110.45C1419.67 98.57 1428.4 89.33 1439.45 82.74C1450.49 76.15 1462.7 72.85 1476.07 72.85C1488.14 72.85 1498.67 75.22 1507.68 79.95C1516.68 84.68 1523.88 90.58 1529.26 97.63V75.35H1561.29V228.79H1529.26V205.95C1523.87 213.19 1516.54 219.23 1507.26 224.05C1497.97 228.88 1487.39 231.29 1475.51 231.29C1462.33 231.29 1450.26 227.9 1439.31 221.13C1428.35 214.36 1419.68 204.89 1413.27 192.73C1406.86 180.57 1403.66 166.79 1403.66 151.38C1403.66 135.97 1406.86 122.33 1413.27 110.44V110.45ZM1522.72 124.37C1518.36 116.57 1512.65 110.63 1505.59 106.55C1498.53 102.47 1490.92 100.42 1482.75 100.42C1474.58 100.42 1466.97 102.42 1459.91 106.41C1452.85 110.4 1447.14 116.25 1442.78 123.95C1438.42 131.66 1436.24 140.8 1436.24 151.38C1436.24 161.96 1438.42 171.25 1442.78 179.23C1447.14 187.21 1452.9 193.29 1460.05 197.47C1467.19 201.65 1474.76 203.74 1482.75 203.74C1490.74 203.74 1498.53 201.7 1505.59 197.61C1512.64 193.53 1518.35 187.54 1522.72 179.65C1527.08 171.76 1529.26 162.52 1529.26 151.94C1529.26 141.36 1527.08 132.17 1522.72 124.37Z" fill="#262626"/>
<path d="M1602.08 110.31C1608.48 98.34 1617.35 89.1 1628.67 82.6C1639.99 76.1 1652.99 72.85 1667.66 72.85C1686.22 72.85 1701.59 77.26 1713.75 86.08C1725.91 94.9 1734.12 107.48 1738.4 123.81H1704.15C1701.37 116.2 1696.91 110.26 1690.78 105.99C1684.65 101.72 1676.95 99.58 1667.67 99.58C1654.67 99.58 1644.32 104.17 1636.62 113.36C1628.91 122.55 1625.06 135.41 1625.06 151.93C1625.06 168.45 1628.91 181.36 1636.62 190.64C1644.32 199.93 1654.67 204.56 1667.67 204.56C1686.05 204.56 1698.21 196.48 1704.15 180.33H1738.4C1733.94 195.92 1725.59 208.32 1713.34 217.51C1701.09 226.7 1685.86 231.29 1667.67 231.29C1653 231.29 1640 228 1628.68 221.4C1617.35 214.81 1608.49 205.53 1602.09 193.55C1595.68 181.58 1592.48 167.7 1592.48 151.92C1592.48 136.14 1595.68 122.26 1602.09 110.29L1602.08 110.31Z" fill="#262626"/>
<path d="M1909.66 163.92H1792.42C1793.35 176.17 1797.89 186.02 1806.07 193.44C1814.24 200.87 1824.26 204.58 1836.15 204.58C1853.23 204.58 1865.29 197.44 1872.35 183.14H1906.6C1901.96 197.25 1893.55 208.81 1881.4 217.81C1869.24 226.82 1854.15 231.32 1836.15 231.32C1821.48 231.32 1808.35 228.03 1796.75 221.43C1785.15 214.84 1776.05 205.56 1769.46 193.58C1762.87 181.61 1759.57 167.73 1759.57 151.95C1759.57 136.17 1762.77 122.29 1769.18 110.32C1775.58 98.35 1784.59 89.11 1796.19 82.61C1807.79 76.11 1821.11 72.86 1836.15 72.86C1851.19 72.86 1863.53 76.02 1874.86 82.33C1886.18 88.64 1895 97.51 1901.32 108.92C1907.63 120.34 1910.79 133.47 1910.79 148.33C1910.79 154.09 1910.42 159.29 1909.68 163.92H1909.66ZM1877.64 138.3C1877.45 126.6 1873.28 117.23 1865.11 110.17C1856.94 103.12 1846.82 99.59 1834.76 99.59C1823.8 99.59 1814.43 103.07 1806.63 110.03C1798.83 116.99 1794.19 126.42 1792.71 138.3H1877.65H1877.64Z" fill="#262626"/>
</svg>
