<svg width="1920" height="296" viewBox="0 0 1920 296" fill="none" xmlns="http://www.w3.org/2000/svg">
<g clip-path="url(#clip0_3480_1726)">
<path d="M459.3 102.36H435.95V207.2H409.63V102.36H394.75V81.07H409.63V72.14C409.63 57.64 413.48 47.07 421.19 40.44C428.89 33.8 440.99 30.48 457.47 30.48V52.23C449.53 52.23 443.96 53.72 440.76 56.69C437.56 59.67 435.95 64.82 435.95 72.14V81.07H459.3V102.36Z" fill="#262626"/>
<path d="M479.21 59.5499C476.01 56.3499 474.4 52.3799 474.4 47.6499C474.4 42.9199 476 38.9499 479.21 35.7499C482.42 32.5499 486.38 30.9399 491.11 30.9399C495.84 30.9399 499.58 32.5399 502.78 35.7499C505.98 38.9499 507.59 42.9199 507.59 47.6499C507.59 52.3799 505.99 56.3499 502.78 59.5499C499.57 62.7499 495.68 64.3599 491.11 64.3599C486.54 64.3599 482.41 62.7599 479.21 59.5499ZM503.94 81.0699V207.2H477.84V81.0699H503.94Z" fill="#262626"/>
<path d="M624 85.19C631.86 89.31 638 95.42 642.43 103.5C646.85 111.59 649.07 121.36 649.07 132.8V207.2H623.2V136.7C623.2 125.41 620.37 116.75 614.73 110.72C609.08 104.69 601.37 101.68 591.61 101.68C581.85 101.68 574.1 104.7 568.38 110.72C562.66 116.75 559.8 125.41 559.8 136.7V207.2H533.7V81.07H559.8V95.49C564.07 90.3 569.53 86.26 576.17 83.36C582.81 80.46 589.87 79.01 597.34 79.01C607.26 79.01 616.15 81.07 624.01 85.19H624Z" fill="#262626"/>
<path d="M676.88 109.92C682.15 100.16 689.32 92.5599 698.4 87.1399C707.48 81.7299 717.59 79.0099 728.73 79.0099C736.97 79.0099 745.1 80.8099 753.11 84.3899C761.12 87.9799 767.49 92.7499 772.22 98.6999V37.8099H798.55V207.21H772.22V188.21C767.95 194.32 762.03 199.35 754.48 203.32C746.93 207.29 738.26 209.27 728.5 209.27C717.51 209.27 707.48 206.49 698.4 200.91C689.32 195.34 682.15 187.56 676.88 177.56C671.61 167.57 668.98 156.24 668.98 143.57C668.98 130.9 671.61 119.69 676.88 109.92ZM766.84 121.36C763.25 114.95 758.56 110.07 752.76 106.71C746.96 103.36 740.7 101.67 733.99 101.67C727.28 101.67 721.02 103.31 715.22 106.59C709.42 109.87 704.73 114.68 701.14 121.01C697.55 127.34 695.76 134.86 695.76 143.56C695.76 152.26 697.55 159.89 701.14 166.45C704.72 173.01 709.46 178.01 715.33 181.44C721.2 184.87 727.42 186.59 733.99 186.59C740.56 186.59 746.96 184.91 752.76 181.55C758.56 178.19 763.25 173.27 766.84 166.78C770.42 160.3 772.22 152.7 772.22 144C772.22 135.3 770.42 127.75 766.84 121.34V121.36Z" fill="#262626"/>
<path d="M1062.59 85.19C1070.45 89.31 1076.63 95.42 1081.13 103.5C1085.63 111.59 1087.88 121.36 1087.88 132.8V207.2H1062.01V136.7C1062.01 125.41 1059.18 116.75 1053.54 110.72C1047.89 104.69 1040.19 101.68 1030.42 101.68C1020.65 101.68 1012.91 104.7 1007.19 110.72C1001.47 116.75 998.61 125.41 998.61 136.7V207.2H972.74V136.7C972.74 125.41 969.92 116.75 964.27 110.72C958.62 104.69 950.91 101.68 941.15 101.68C931.39 101.68 923.64 104.7 917.92 110.72C912.2 116.75 909.34 125.41 909.34 136.7V207.2H883.24V81.07H909.34V95.49C913.61 90.3 919.03 86.26 925.59 83.36C932.15 80.46 939.17 79.01 946.65 79.01C956.72 79.01 965.72 81.15 973.66 85.42C981.59 89.69 987.7 95.87 991.97 103.96C995.78 96.33 1001.73 90.26 1009.83 85.76C1017.92 81.26 1026.62 79.01 1035.93 79.01C1045.85 79.01 1054.74 81.07 1062.6 85.19H1062.59Z" fill="#262626"/>
<path d="M1230.04 81.0699L1152.67 266.49H1125.66L1151.3 205.14L1101.63 81.0699H1130.7L1166.18 177.21L1203.03 81.0699H1230.04Z" fill="#262626"/>
<path d="M1344.26 84.96C1351.89 80.99 1360.51 79.01 1370.13 79.01C1381.12 79.01 1391.15 81.72 1400.23 87.14C1409.31 92.56 1416.44 100.15 1421.63 109.92C1426.82 119.69 1429.41 130.91 1429.41 143.57C1429.41 156.23 1426.81 167.57 1421.63 177.56C1416.44 187.56 1409.3 195.34 1400.23 200.91C1391.15 206.48 1381.12 209.27 1370.13 209.27C1360.52 209.27 1351.97 207.32 1344.49 203.43C1337.01 199.54 1330.91 194.7 1326.18 188.89V267.18H1300.08V81.07H1326.18V99.61C1330.6 93.81 1336.63 88.93 1344.26 84.96ZM1397.49 121.02C1393.9 114.69 1389.17 109.88 1383.3 106.6C1377.42 103.32 1371.13 101.68 1364.42 101.68C1357.71 101.68 1351.64 103.36 1345.76 106.72C1339.88 110.08 1335.15 114.96 1331.57 121.37C1327.98 127.78 1326.19 135.33 1326.19 144.03C1326.19 152.73 1327.98 160.32 1331.57 166.81C1335.15 173.3 1339.89 178.22 1345.76 181.58C1351.63 184.94 1357.85 186.62 1364.42 186.62C1370.99 186.62 1377.43 184.9 1383.3 181.47C1389.17 178.04 1393.91 173.04 1397.49 166.48C1401.07 159.92 1402.87 152.29 1402.87 143.59C1402.87 134.89 1401.07 127.38 1397.49 121.04V121.02Z" fill="#262626"/>
<path d="M1476.8 37.8099V207.21H1450.7V37.8099H1476.8Z" fill="#262626"/>
<path d="M1505.76 109.92C1511.02 100.16 1518.2 92.56 1527.28 87.14C1536.36 81.73 1546.39 79.01 1557.38 79.01C1567.3 79.01 1575.96 80.96 1583.36 84.85C1590.76 88.74 1596.67 93.59 1601.1 99.39V81.08H1627.42V207.21H1601.1V188.44C1596.67 194.39 1590.65 199.35 1583.02 203.32C1575.39 207.29 1566.69 209.27 1556.92 209.27C1546.08 209.27 1536.16 206.49 1527.16 200.91C1518.15 195.34 1511.02 187.56 1505.76 177.56C1500.49 167.57 1497.86 156.24 1497.86 143.57C1497.86 130.9 1500.49 119.69 1505.76 109.92ZM1595.72 121.36C1592.13 114.95 1587.44 110.07 1581.64 106.71C1575.84 103.36 1569.58 101.67 1562.87 101.67C1556.16 101.67 1549.9 103.31 1544.1 106.59C1538.3 109.87 1533.61 114.68 1530.02 121.01C1526.43 127.34 1524.64 134.86 1524.64 143.56C1524.64 152.26 1526.43 159.89 1530.02 166.45C1533.6 173.01 1538.34 178.01 1544.21 181.44C1550.08 184.87 1556.3 186.59 1562.87 186.59C1569.44 186.59 1575.84 184.91 1581.64 181.55C1587.44 178.19 1592.13 173.27 1595.72 166.78C1599.3 160.3 1601.1 152.7 1601.1 144C1601.1 135.3 1599.3 127.75 1595.72 121.34V121.36Z" fill="#262626"/>
<path d="M1656.38 109.8C1661.64 99.96 1668.93 92.37 1678.24 87.02C1687.55 81.68 1698.23 79.01 1710.29 79.01C1725.55 79.01 1738.18 82.64 1748.18 89.88C1758.17 97.13 1764.93 107.47 1768.44 120.9H1740.28C1737.99 114.64 1734.33 109.76 1729.29 106.25C1724.25 102.74 1717.92 100.98 1710.29 100.98C1699.61 100.98 1691.1 104.76 1684.77 112.31C1678.44 119.86 1675.27 130.43 1675.27 144.01C1675.27 157.59 1678.44 168.2 1684.77 175.83C1691.1 183.46 1699.61 187.28 1710.29 187.28C1725.4 187.28 1735.39 180.64 1740.28 167.36H1768.44C1764.78 180.18 1757.91 190.37 1747.84 197.92C1737.77 205.47 1725.25 209.25 1710.3 209.25C1698.24 209.25 1687.56 206.54 1678.25 201.12C1668.94 195.71 1661.65 188.07 1656.39 178.23C1651.12 168.39 1648.49 156.98 1648.49 144.01C1648.49 131.04 1651.12 119.63 1656.39 109.79L1656.38 109.8Z" fill="#262626"/>
<path d="M1904.63 153.87H1808.26C1809.02 163.94 1812.76 172.03 1819.48 178.14C1826.19 184.24 1834.43 187.3 1844.2 187.3C1858.24 187.3 1868.16 181.43 1873.96 169.67H1902.12C1898.3 181.27 1891.4 190.77 1881.4 198.17C1871.4 205.57 1859 209.27 1844.2 209.27C1832.14 209.27 1821.35 206.56 1811.81 201.14C1802.27 195.73 1794.79 188.09 1789.38 178.25C1783.96 168.41 1781.25 157 1781.25 144.03C1781.25 131.06 1783.88 119.65 1789.15 109.81C1794.41 99.97 1801.82 92.38 1811.35 87.03C1820.89 81.69 1831.84 79.02 1844.2 79.02C1856.56 79.02 1866.71 81.62 1876.02 86.8C1885.33 91.99 1892.58 99.28 1897.77 108.66C1902.96 118.05 1905.55 128.84 1905.55 141.05C1905.55 145.78 1905.24 150.06 1904.63 153.87ZM1878.31 132.81C1878.16 123.2 1874.72 115.49 1868.01 109.69C1861.29 103.89 1852.98 100.99 1843.06 100.99C1834.05 100.99 1826.35 103.85 1819.94 109.57C1813.53 115.29 1809.71 123.04 1808.49 132.8H1878.31V132.81Z" fill="#262626"/>
<path d="M126.62 39.8197C132.18 34.3498 140.92 34.5899 146.49 39.8197C184.48 75.4996 222.47 111.19 260.46 146.87C273.68 159.279 253.771 179.11 240.591 166.74C205.989 134.242 171.386 101.736 136.784 69.2367C103.741 101.736 70.7061 134.242 37.6709 166.74C24.7609 179.44 4.89078 159.57 17.8008 146.87C54.0806 111.19 90.3503 75.4996 126.62 39.8197Z" fill="#0980FF"/>
<path d="M161.99 114.32C169.4 114.32 175.44 120.35 175.44 127.77V145.13C175.44 152.54 169.41 158.58 161.99 158.58H144.631C137.221 158.58 131.181 152.55 131.181 145.13V127.77C131.181 120.36 137.211 114.32 144.631 114.32H161.99Z" fill="#0980FF"/>
<path d="M113.37 162.94C120.78 162.94 126.82 168.97 126.82 176.39V193.75C126.82 201.16 120.79 207.2 113.37 207.2H96.0107C88.6007 207.2 82.5605 201.17 82.5605 193.75V176.39C82.5605 168.98 88.5907 162.94 96.0107 162.94H113.37Z" fill="#0980FF"/>
</g>
<defs>
<clipPath id="clip0_3480_1726">
<rect width="1920" height="295.62" fill="white"/>
</clipPath>
</defs>
</svg>
