<svg width="1533" height="560" viewBox="0 0 1533 560" fill="none" xmlns="http://www.w3.org/2000/svg">
<path d="M750.317 14.7346C757.455 7.70867 768.697 8.01991 775.851 14.7346C824.675 60.5888 873.499 106.452 922.324 152.306C939.314 168.259 913.725 193.744 896.791 177.84C852.32 136.075 807.85 94.3035 763.379 52.5374C720.917 94.3037 678.46 136.075 636.004 177.84C619.421 194.168 593.879 168.634 610.47 152.306C657.091 106.452 703.704 60.5889 750.317 14.7346Z" fill="white"/>
<path d="M795.772 110.484C805.298 110.484 813.05 118.237 813.05 127.762V150.071C813.05 159.596 805.298 167.348 795.772 167.348H773.464C763.939 167.348 756.186 159.596 756.186 150.071V127.762C756.186 118.237 763.939 110.484 773.464 110.484H795.772Z" fill="white"/>
<path d="M733.287 172.969C742.812 172.97 750.564 180.723 750.564 190.248V212.556C750.564 222.081 742.812 229.834 733.287 229.834H710.978C701.453 229.834 693.7 222.082 693.7 212.556V190.248C693.7 180.722 701.453 172.969 710.978 172.969H733.287Z" fill="white"/>
<path d="M67.9831 389.154H45.2756V491.106H19.6776V389.154H5.20996V368.451H19.6776V359.771C19.6776 345.671 23.4223 335.395 30.9196 328.944C38.409 322.492 50.178 319.259 66.2026 319.259V340.409C58.4817 340.409 53.0683 341.855 49.9544 344.753C46.8405 347.643 45.2835 352.657 45.2835 359.779V368.459H67.9911V389.162L67.9831 389.154Z" fill="white"/>
<path d="M91.792 347.532C88.678 344.418 87.1211 340.561 87.1211 335.954C87.1211 331.347 88.678 327.499 91.792 324.377C94.9059 321.263 98.7623 319.706 103.369 319.706C107.976 319.706 111.609 321.263 114.723 324.377C117.837 327.491 119.394 331.355 119.394 335.954C119.394 340.553 117.837 344.41 114.723 347.532C111.609 350.654 107.825 352.21 103.369 352.21C98.914 352.21 94.9138 350.654 91.792 347.532ZM115.841 368.451V491.107H90.4665V368.451H115.841Z" fill="white"/>
<path d="M237.044 372.459C244.685 376.467 250.658 382.399 254.961 390.264C259.265 398.128 261.421 407.63 261.421 418.76V491.106H236.27V422.545C236.27 411.566 233.523 403.143 228.03 397.282C222.537 391.422 215.039 388.491 205.546 388.491C196.052 388.491 188.515 391.422 182.95 397.282C177.385 403.143 174.598 411.566 174.598 422.545V491.106H149.224V368.451H174.598V382.471C178.75 377.425 184.06 373.497 190.511 370.67C196.963 367.852 203.829 366.438 211.103 366.438C220.748 366.438 229.387 368.443 237.036 372.451L237.044 372.459Z" fill="white"/>
<path d="M292.91 396.5C298.028 387.006 305.007 379.621 313.837 374.351C322.668 369.081 332.497 366.447 343.332 366.447C351.348 366.447 359.245 368.195 367.037 371.676C374.83 375.166 381.026 379.804 385.625 385.585V326.373H411.223V491.099H385.625V472.623C381.465 478.563 375.716 483.458 368.371 487.314C361.025 491.171 352.602 493.103 343.108 493.103C332.425 493.103 322.66 490.396 313.837 484.975C305.007 479.561 298.036 471.992 292.91 462.267C287.792 452.55 285.229 441.532 285.229 429.212C285.229 416.892 287.792 405.985 292.91 396.492V396.5ZM380.395 407.63C376.906 401.394 372.347 396.652 366.702 393.386C361.057 390.12 354.981 388.491 348.45 388.491C341.919 388.491 335.834 390.088 330.197 393.274C324.553 396.468 319.993 401.139 316.504 407.295C313.015 413.451 311.275 420.764 311.275 429.22C311.275 437.675 313.015 445.101 316.504 451.48C319.985 457.86 324.592 462.722 330.309 466.06C336.018 469.397 342.07 471.066 348.45 471.066C354.829 471.066 361.065 469.437 366.702 466.171C372.339 462.906 376.906 458.123 380.395 451.816C383.876 445.508 385.625 438.122 385.625 429.667C385.625 421.211 383.876 413.866 380.395 407.63Z" fill="white"/>
<path d="M676.903 372.459C684.544 376.467 690.556 382.399 694.932 390.264C699.307 398.128 701.495 407.63 701.495 418.76V491.106H676.344V422.545C676.344 411.566 673.598 403.143 668.104 397.282C662.611 391.422 655.114 388.491 645.62 388.491C636.127 388.491 628.59 391.422 623.024 397.282C617.459 403.143 614.681 411.566 614.681 422.545V491.106H589.53V422.545C589.53 411.566 586.783 403.143 581.29 397.282C575.797 391.422 568.3 388.491 558.806 388.491C549.313 388.491 541.775 391.422 536.21 397.282C530.645 403.143 527.859 411.566 527.859 422.545V491.106H502.484V368.451H527.859V382.471C532.011 377.425 537.28 373.497 543.66 370.67C550.039 367.852 556.866 366.438 564.14 366.438C573.937 366.438 582.687 368.514 590.408 372.674C598.121 376.834 604.062 382.838 608.213 390.703C611.918 383.285 617.707 377.385 625.579 373.01C633.444 368.634 641.9 366.446 650.954 366.446C660.599 366.446 669.246 368.451 676.887 372.459H676.903Z" fill="white"/>
<path d="M844.184 368.451L768.947 548.762H742.679L767.614 489.103L719.309 368.451H747.581L782.082 461.948L817.924 368.451H844.192H844.184Z" fill="white"/>
<path d="M964.165 372.235C971.582 368.379 979.966 366.447 989.316 366.447C999.999 366.447 1009.76 369.082 1018.59 374.351C1027.42 379.621 1034.36 387.007 1039.4 396.5C1044.45 406.001 1046.97 416.908 1046.97 429.22C1046.97 441.532 1044.45 452.558 1039.4 462.275C1034.36 472 1027.42 479.569 1018.59 484.983C1009.76 490.404 999.999 493.111 989.316 493.111C979.966 493.111 971.654 491.219 964.389 487.434C957.115 483.649 951.182 478.939 946.583 473.302V549.433H921.209V368.459H946.583V386.488C950.887 380.851 956.747 376.1 964.165 372.243V372.235ZM1015.92 407.295C1012.43 401.139 1007.83 396.46 1002.11 393.274C996.398 390.089 990.282 388.492 983.751 388.492C977.219 388.492 971.319 390.128 965.61 393.386C959.893 396.652 955.294 401.402 951.805 407.63C948.316 413.866 946.575 421.212 946.575 429.667C946.575 438.123 948.316 445.508 951.805 451.816C955.294 458.123 959.893 462.914 965.61 466.172C971.319 469.437 977.371 471.066 983.751 471.066C990.13 471.066 996.398 469.397 1002.11 466.06C1007.82 462.722 1012.43 457.86 1015.92 451.48C1019.41 445.101 1021.15 437.675 1021.15 429.22C1021.15 420.765 1019.4 413.451 1015.92 407.295Z" fill="white"/>
<path d="M1097.5 326.381V491.106H1072.13V326.381H1097.5Z" fill="white"/>
<path d="M1130.11 396.5C1135.23 387.007 1142.21 379.621 1151.04 374.351C1159.87 369.082 1169.63 366.447 1180.31 366.447C1189.96 366.447 1198.38 368.339 1205.57 372.124C1212.77 375.908 1218.52 380.619 1222.83 386.256V368.451H1248.43V491.107H1222.83V472.855C1218.52 478.643 1212.66 483.466 1205.24 487.322C1197.81 491.179 1189.36 493.111 1179.86 493.111C1169.32 493.111 1159.68 490.404 1150.93 484.983C1142.17 479.569 1135.23 472 1130.11 462.275C1124.99 452.558 1122.43 441.54 1122.43 429.22C1122.43 416.9 1124.99 405.993 1130.11 396.5ZM1217.6 407.63C1214.11 401.394 1209.55 396.652 1203.9 393.386C1198.26 390.12 1192.18 388.492 1185.65 388.492C1179.12 388.492 1173.04 390.089 1167.4 393.274C1161.75 396.468 1157.2 401.139 1153.71 407.295C1150.22 413.451 1148.48 420.765 1148.48 429.22C1148.48 437.675 1150.22 445.101 1153.71 451.48C1157.2 457.86 1161.79 462.722 1167.51 466.06C1173.22 469.397 1179.27 471.066 1185.65 471.066C1192.03 471.066 1198.27 469.437 1203.9 466.172C1209.54 462.906 1214.11 458.123 1217.6 451.816C1221.09 445.508 1222.83 438.123 1222.83 429.667C1222.83 421.212 1221.08 413.866 1217.6 407.63Z" fill="white"/>
<path d="M1281.03 396.388C1286.15 386.815 1293.24 379.437 1302.3 374.24C1311.34 369.05 1321.74 366.447 1333.46 366.447C1348.29 366.447 1360.58 369.976 1370.3 377.018C1380.02 384.068 1386.59 394.121 1390 407.183H1362.62C1360.39 401.099 1356.83 396.356 1351.93 392.939C1347.04 389.53 1340.88 387.821 1333.46 387.821C1323.07 387.821 1314.79 391.494 1308.64 398.839C1302.48 406.185 1299.4 416.461 1299.4 429.667C1299.4 442.873 1302.48 453.189 1308.64 460.607C1314.79 468.032 1323.06 471.737 1333.46 471.737C1348.15 471.737 1357.87 465.285 1362.62 452.375H1390C1386.43 464.838 1379.75 474.747 1369.96 482.092C1360.17 489.438 1348 493.111 1333.46 493.111C1321.74 493.111 1311.34 490.476 1302.3 485.206C1293.24 479.937 1286.16 472.519 1281.03 462.946C1275.92 453.373 1273.35 442.282 1273.35 429.667C1273.35 417.052 1275.92 405.961 1281.03 396.388Z" fill="white"/>
<path d="M1526.9 439.24H1433.18C1433.93 449.037 1437.56 456.901 1444.09 462.834C1450.62 468.774 1458.63 471.736 1468.13 471.736C1481.78 471.736 1491.43 466.028 1497.07 454.594H1524.44C1520.73 465.876 1514.02 475.114 1504.3 482.308C1494.57 489.51 1482.52 493.103 1468.13 493.103C1456.4 493.103 1445.9 490.468 1436.63 485.198C1427.35 479.928 1420.08 472.511 1414.82 462.938C1409.55 453.364 1406.91 442.274 1406.91 429.659C1406.91 417.043 1409.48 405.953 1414.6 396.38C1419.71 386.807 1426.92 379.429 1436.19 374.231C1445.46 369.041 1456.11 366.438 1468.13 366.438C1480.16 366.438 1490.02 368.962 1499.07 374.008C1508.12 379.054 1515.17 386.136 1520.22 395.262C1525.27 404.388 1527.79 414.888 1527.79 426.76C1527.79 431.359 1527.49 435.519 1526.9 439.224V439.24ZM1501.3 418.76C1501.15 409.41 1497.81 401.921 1491.28 396.276C1484.75 390.639 1476.66 387.821 1467.01 387.821C1458.25 387.821 1450.76 390.607 1444.53 396.172C1438.29 401.737 1434.58 409.275 1433.4 418.768H1501.29L1501.3 418.76Z" fill="white"/>
</svg>
